<svg width="10" height="10" viewBox="0 0 10 10" fill="none" xmlns="http://www.w3.org/2000/svg">
<path d="M4.99587 0.833328C2.69587 0.833328 0.833374 2.7 0.833374 5C0.833374 7.3 2.69587 9.16666 4.99587 9.16666C7.30004 9.16666 9.16671 7.3 9.16671 5C9.16671 2.7 7.30004 0.833328 4.99587 0.833328ZM5.00004 8.33333C3.15837 8.33333 1.66671 6.84166 1.66671 5C1.66671 3.15833 3.15837 1.66666 5.00004 1.66666C6.84171 1.66666 8.33337 3.15833 8.33337 5C8.33337 6.84166 6.84171 8.33333 5.00004 8.33333Z" fill="black"/>
<path d="M5.20837 2.91667H4.58337V5.41667L6.77087 6.72917L7.08337 6.21667L5.20837 5.10417V2.91667Z" fill="black"/>
</svg>
